<?xml version="1.0" encoding="UTF-8"?><svg xmlns="http://www.w3.org/2000/svg" xmlns:xlink="http://www.w3.org/1999/xlink" viewBox="0 0 180.6 99.33"><defs><style>.f{fill:none;}.g{fill:#1d1d1b;}.h{clip-path:url(#e);}.i{clip-path:url(#d);}</style><clipPath id="d"><rect class="f" width="180.6" height="99.33"/></clipPath><clipPath id="e"><rect class="f" width="180.6" height="99.33"/></clipPath></defs><g id="a"/><g id="b"><g id="c"><g class="i"><path class="g" d="M40.34,31.95h2.71l12.07,27.08h-3.95l-3.59-7.98h-11.49l-3.36,7.98h-3.96l11.57-27.08Zm5.66,15.67l-4.34-9.75-4.03,9.75h8.37Z"/><polygon class="g" points="78.89 32.1 82.49 32.1 82.49 59.03 78.62 59.03 78.62 38.08 70.34 48.49 69.63 48.49 61.25 38.08 61.25 59.03 57.4 59.03 57.4 32.1 61.05 32.1 69.99 43.16 78.89 32.1"/><g class="h"><path class="g" d="M96.22,59.03h-9.12v-26.93h7.05c2.22,0,3.96,.3,5.2,.9,1.25,.6,2.2,1.42,2.85,2.47,.66,1.05,.98,2.26,.98,3.63,0,2.65-1.37,4.54-4.11,5.69,1.97,.37,3.53,1.18,4.69,2.43,1.16,1.25,1.74,2.74,1.74,4.47,0,1.38-.35,2.6-1.06,3.68-.71,1.08-1.74,1.96-3.11,2.64-1.37,.68-3.08,1.02-5.14,1.02m-1.95-23.49h-3.31v8.09h2.56c2.06,0,3.52-.39,4.38-1.18,.87-.78,1.3-1.8,1.3-3.05,0-2.58-1.64-3.87-4.93-3.87m.29,11.53h-3.6v8.54h3.8c2.11,0,3.54-.16,4.29-.49,.75-.33,1.36-.84,1.81-1.53,.46-.69,.68-1.44,.68-2.24s-.24-1.57-.72-2.26c-.48-.68-1.17-1.19-2.05-1.52-.89-.33-2.29-.5-4.2-.5"/><polygon class="g" points="109.13 32.1 124.4 32.1 124.4 35.54 112.99 35.54 112.99 43.75 124.01 43.75 124.01 47.2 112.99 47.2 112.99 55.56 124.76 55.56 124.76 58.99 109.13 58.99 109.13 32.1"/><path class="g" d="M129.77,59.03v-26.93h6.75c2.72,0,4.89,.67,6.49,2.02,1.6,1.35,2.4,3.17,2.4,5.47,0,1.57-.39,2.92-1.18,4.07-.78,1.14-1.69,1.99-3.15,2.79l6.82,12.57h-4.59l-5.99-11.72s-1.43,0-2.69,0h-1v11.72h-3.85Zm5.01-23.65h-1.16v8.5h1.46c1.95,0,3.29-.17,4.02-.5,.73-.33,1.29-.84,1.7-1.51,.41-.67,.61-1.44,.61-2.3s-.22-1.62-.67-2.3c-.45-.69-1.08-1.17-1.9-1.45-.82-.28-2.17-.42-4.06-.42"/><path class="g" d="M83.33,64.39v4.08h-1.12v-3.13c0-.62-.08-1.06-.25-1.3-.17-.25-.46-.37-.87-.37-.23,0-.44,.05-.64,.16-.19,.11-.41,.29-.66,.56v4.08h-1.11v-5.61h1.11v.74c.57-.57,1.12-.85,1.66-.85,.71,0,1.26,.34,1.65,1.01,.59-.68,1.21-1.03,1.86-1.03,.55,0,.99,.2,1.35,.6,.35,.4,.53,1.01,.53,1.83v3.31h-1.11v-3.33c0-.47-.1-.83-.29-1.07-.19-.25-.47-.37-.82-.37-.46,0-.89,.23-1.29,.7"/><path class="g" d="M91.21,62.84c.85,0,1.56,.28,2.13,.83,.57,.55,.85,1.24,.85,2.08s-.29,1.48-.86,2.02c-.57,.54-1.3,.8-2.17,.8s-1.55-.27-2.11-.81c-.57-.54-.85-1.22-.85-2.04s.29-1.51,.86-2.05,1.29-.82,2.15-.82m-.06,1c-.53,0-.97,.17-1.31,.52-.34,.35-.51,.8-.51,1.34s.17,.98,.52,1.32c.35,.34,.8,.51,1.35,.51s.99-.17,1.34-.52c.35-.34,.52-.78,.52-1.32s-.18-.97-.54-1.32c-.36-.35-.82-.52-1.37-.52"/><polygon class="g" points="99.03 62.85 100.23 62.85 97.75 68.56 97.37 68.56 94.83 62.85 96.05 62.85 97.57 66.31 99.03 62.85"/><path class="g" d="M101.8,60.49c.18,0,.34,.06,.47,.19,.13,.13,.2,.28,.2,.46s-.06,.33-.2,.46c-.13,.13-.29,.2-.47,.2-.17,0-.32-.07-.45-.2-.13-.13-.19-.29-.19-.46s.06-.32,.19-.45c.13-.13,.28-.2,.45-.2m-.55,2.36h1.11v5.61h-1.11v-5.61Z"/><path class="g" d="M105.24,62.85v.71c.5-.55,1.06-.82,1.69-.82,.35,0,.68,.09,.98,.27,.3,.18,.53,.43,.69,.74,.16,.32,.24,.81,.24,1.5v3.21h-1.11v-3.2c0-.57-.09-.98-.26-1.23-.17-.25-.47-.37-.88-.37-.52,0-.97,.26-1.34,.79v4.01h-1.14v-5.61h1.14Z"/><path class="g" d="M110.25,64.79c0-.6,.22-1.07,.66-1.42,.44-.35,1.04-.52,1.79-.52h2.31v.87h-1.14c.22,.22,.37,.43,.46,.61,.09,.18,.13,.39,.13,.63,0,.29-.08,.58-.25,.86-.17,.28-.38,.5-.64,.65-.26,.15-.69,.27-1.29,.36-.42,.06-.63,.21-.63,.43,0,.13,.08,.24,.23,.32,.16,.08,.44,.17,.85,.26,.69,.15,1.13,.27,1.33,.35,.2,.09,.38,.21,.53,.37,.27,.27,.4,.61,.4,1.01,0,.53-.24,.96-.71,1.28-.47,.32-1.11,.48-1.9,.48s-1.44-.16-1.92-.48c-.48-.32-.72-.75-.72-1.29,0-.76,.47-1.25,1.41-1.47-.37-.24-.56-.48-.56-.71,0-.18,.08-.34,.24-.49,.16-.15,.38-.25,.65-.32-.83-.37-1.24-.96-1.24-1.78m1.83,3.94c-.37,0-.68,.08-.92,.24-.24,.16-.36,.36-.36,.61,0,.58,.52,.87,1.56,.87,.49,0,.87-.07,1.14-.22,.27-.14,.41-.35,.41-.61s-.17-.47-.51-.64c-.34-.16-.78-.25-1.32-.25m.26-4.91c-.3,0-.56,.1-.77,.31-.21,.2-.32,.45-.32,.73s.1,.53,.31,.72c.21,.19,.47,.28,.79,.28s.58-.1,.78-.29c.21-.19,.31-.43,.31-.72s-.11-.54-.32-.73c-.21-.2-.48-.29-.79-.29"/><path class="g" d="M124.27,64.39v4.08h-1.12v-3.13c0-.62-.08-1.06-.25-1.3-.17-.25-.46-.37-.87-.37-.23,0-.44,.05-.64,.16-.19,.11-.41,.29-.66,.56v4.08h-1.11v-5.61h1.11v.74c.57-.57,1.12-.85,1.66-.85,.71,0,1.26,.34,1.65,1.01,.59-.68,1.21-1.03,1.86-1.03,.55,0,.99,.2,1.35,.6,.35,.4,.53,1.01,.53,1.83v3.31h-1.11v-3.33c0-.47-.1-.83-.29-1.07-.19-.25-.47-.37-.82-.37-.46,0-.89,.23-1.29,.7"/><path class="g" d="M133.05,68.47v-.72c-.24,.26-.51,.46-.81,.6-.3,.14-.6,.22-.91,.22-.35,0-.68-.09-.98-.27-.3-.18-.52-.42-.68-.72-.15-.3-.23-.81-.23-1.51v-3.22h1.11v3.2c0,.59,.08,1,.25,1.23,.17,.23,.46,.35,.89,.35,.53,0,.98-.26,1.35-.77v-4.01h1.11v5.61h-1.11Z"/><path class="g" d="M135.61,68.06v-1.2c.31,.22,.63,.4,.96,.53,.33,.14,.6,.2,.83,.2s.43-.06,.6-.17c.17-.11,.25-.25,.25-.41s-.05-.3-.16-.41c-.11-.11-.34-.26-.7-.47-.72-.4-1.19-.74-1.41-1.02-.22-.28-.33-.59-.33-.92,0-.43,.17-.78,.5-1.06,.34-.27,.77-.41,1.3-.41s1.11,.15,1.69,.46v1.1c-.66-.4-1.2-.6-1.62-.6-.22,0-.39,.05-.52,.14-.13,.09-.2,.21-.2,.36,0,.13,.06,.25,.18,.37,.12,.12,.33,.26,.63,.43l.4,.23c.94,.53,1.4,1.11,1.4,1.76,0,.46-.18,.84-.54,1.13-.36,.29-.82,.44-1.39,.44-.33,0-.63-.04-.89-.11-.26-.07-.59-.2-.98-.39"/><path class="g" d="M141.43,60.49c.18,0,.34,.06,.47,.19,.13,.13,.2,.28,.2,.46s-.07,.33-.2,.46c-.13,.13-.29,.2-.47,.2-.17,0-.32-.07-.45-.2-.13-.13-.19-.29-.19-.46s.06-.32,.19-.45c.13-.13,.28-.2,.45-.2m-.55,2.36h1.11v5.61h-1.11v-5.61Z"/><path class="g" d="M147.97,67.16v1.1c-.56,.21-1.1,.31-1.64,.31-.88,0-1.58-.26-2.1-.78-.52-.52-.78-1.22-.78-2.09s.25-1.6,.76-2.14c.51-.54,1.18-.81,2.01-.81,.29,0,.55,.03,.78,.08,.23,.05,.51,.16,.85,.31v1.18c-.56-.36-1.08-.54-1.56-.54s-.91,.18-1.23,.53c-.32,.35-.48,.8-.48,1.34,0,.57,.17,1.03,.52,1.37,.35,.34,.82,.51,1.41,.51,.43,0,.92-.12,1.47-.37"/><path class="g" d="M161.61,80.3H19.04V19H161.61v61.3Zm.96-62.25H18.09v63.21H162.57V18.04Z"/></g></g></g></g></svg>